<?xml version="1.0" encoding="UTF-8"?>
<svg width="32" height="32" viewBox="0 0 32 32" fill="none" xmlns="http://www.w3.org/2000/svg">
    <defs>
        <linearGradient id="faviconGradient" x1="0%" y1="0%" x2="100%" y2="100%">
            <stop offset="0%" style="stop-color:#3B82F6"/>
            <stop offset="100%" style="stop-color:#8B5CF6"/>
        </linearGradient>
    </defs>
    <path d="M27.2,8H19.2L17.6,6.4C17.2,6,16.7,5.7,16.1,5.7H8C6.9,5.7,6,6.6,6,7.7v16.6c0,1.1,0.9,2,2,2h19.2c1.1,0,2-0.9,2-2V10C29.2,8.9,28.3,8,27.2,8z" fill="url(#faviconGradient)"/>
    <path opacity="0.2" d="M27.2,8H8C6.9,8,6,8.9,6,10v1.3c0-1.1,0.9-2,2-2h19.2c1.1,0,2,0.9,2,2V10C29.2,8.9,28.3,8,27.2,8z"/>
    <path opacity="0.1" fill="#FFFFFF" d="M8,26.3h19.2c1.1,0,2-0.9,2-2V23c0,1.1-0.9,2-2,2H8c-1.1,0-2-0.9-2-2v1.3C6,25.4,6.9,26.3,8,26.3z"/>
    <path fill="#FFFFFF" opacity="0.4" d="M20.8,12.5h-9.6c-0.4,0-0.6,0.3-0.6,0.6v0.6c0,0.4,0.3,0.6,0.6,0.6h9.6c0.4,0,0.6-0.3,0.6-0.6v-0.6C21.4,12.8,21.1,12.5,20.8,12.5z"/>
    <path fill="#FFFFFF" opacity="0.4" d="M24,16.3h-12.8c-0.4,0-0.6,0.3-0.6,0.6v0.6c0,0.4,0.3,0.6,0.6,0.6H24c0.4,0,0.6-0.3,0.6-0.6v-0.6C24.6,16.6,24.3,16.3,24,16.3z"/>
    <path fill="#FFFFFF" opacity="0.4" d="M24,20.1h-12.8c-0.4,0-0.6,0.3-0.6,0.6v0.6c0,0.4,0.3,0.6,0.6,0.6H24c0.4,0,0.6-0.3,0.6-0.6v-0.6C24.6,20.4,24.3,20.1,24,20.1z"/>
</svg>